<svg xmlns="http://www.w3.org/2000/svg" xmlns:xlink="http://www.w3.org/1999/xlink" viewBox="0 0 636 300"><defs><clipPath id="a"><rect x="206" y="52" width="239" height="129" fill="none"/></clipPath></defs><title>swimlane-cross-platform-desktop</title><path d="M612.562,255.931H11.612a4.07,4.07,0,0,1-3.98-3.959,3.98,3.98,0,0,1,3.98-3.958h600.95a3.9,3.9,0,0,1,3.98,3.958,3.981,3.981,0,0,1-3.98,3.959Z" fill="#b2b2b2"/><path d="M350,231.12V215H299v16.12c0,9.3-10.29,13.435-14.97,14.88l-.03,5h83v-5C362.32,244.555,350,240.422,350,231.12Z" fill="#a6a6a6"/><path d="M457,193V46.821A7.822,7.822,0,0,0,449.179,39H201.821A7.822,7.822,0,0,0,194,46.821V193Z" fill="#4b4a4b"/><circle cx="324.255" cy="45.557" r="1.991" fill="#767576"/><path d="M194,190v18.179A7.822,7.822,0,0,0,201.821,216H449.179A7.822,7.822,0,0,0,457,208.179V190Z" fill="#a6a6a6"/><rect x="284" y="246" width="83" height="5" fill="#737373"/><path d="M350,230V216H299v14Z" fill="#737373"/><circle cx="324.5" cy="201.5" r="4.5" fill="#737373"/><g clip-path="url(#a)"><rect x="206" y="52" width="239" height="129" fill="#8fc3ec"/><path d="M392.05,103H206.122l-.244-23H391.805a11.773,11.773,0,0,1,11.857,10.469A11.567,11.567,0,0,1,392.05,103Z" fill="#b3d6f2"/><path d="M431.685,80H334.672a5.212,5.212,0,0,1-5.178-3.991A5.079,5.079,0,0,1,334.637,70h97.012a5.211,5.211,0,0,1,5.178,3.991A5.078,5.078,0,0,1,431.685,80Z" fill="#b3d6f2"/><path d="M205,99.634,214.706,96h17.482l8.312-4.75,9.5-3.562L263.063,77h5.223l3.646-2h12.252l18.666-5.833,16.334,18.666s8.166-1.166,9.333,0,10.5-1.166,10.5-1.166,5.833,9.333,7,9.333h9.491l10.286,9H369.6l18,12h7.2l9.6-6,8.4-1.2s3.6,7.2,8.4,7.2,9.6-1.2,12,0,12.8,4.8,12.8,4.8V182H205Z" fill="#8867c8"/><path d="M233.292,144.961s-13.369-15.8-18.23-19.446-4.861-12.153-4.861-12.153,6.076-4.861,7.292-4.861,2.43,3.646,1.215,6.076,1.215,6.077,1.215,6.077-1.215-6.077,1.216-4.861S226,114.577,226,110.931v-8.507l3.646-2.43s1.215,12.153,3.646,14.583S244.23,124.3,244.23,124.3s-3.646-12.153-3.646-13.369,4.861-6.076,4.861-6.076,2.431,8.507,6.077,9.722,12.153-9.722,12.153-9.722l9.723,8.507-14.584,27.953Z" fill="#7359ae"/><path d="M292.75,114S279,97.75,279,95.25v-10l2.5,2.5s1.25,10,3.75,11.25,16.25-7.5,16.25-7.5L297.75,99h5l5-1.25-10,16.25Z" fill="#7359ae"/><path d="M318.538,95s-1.23,8.615-2.461,9.846-4.923,8.616-4.923,8.616L321,122.077V111h1.231l1.231-16Z" fill="#7359ae"/><path d="M345.459,100.3l-6.684,5.773-7.292,14.584,3.646,3.646s9.723-9.723,10.938-9.723S345.459,100.3,345.459,100.3Z" fill="#7359ae"/><polygon points="363.139 156.383 359.493 135.723 363.139 126 368 126 368 134.507 372.861 136.938 369.215 149.091 371.646 169.752 363.139 156.383" fill="#7359ae"/><polygon points="380.096 153.307 378.881 137.507 382.527 129 387.388 129 383.742 137.507 382.527 156.952 380.096 153.307" fill="#7359ae"/><path d="M403.187,125.515l9.723,6.077-1.216,4.861s-1.215,10.938-1.215,12.154-3.646,14.583-3.646,14.583l3.646,14.584-7.292-6.076-7.292-18.23,2.431-20.661-2.431-2.43,2.431-10.938Z" fill="#7359ae"/><path d="M427.54,187s-7.2-20.4-7.2-21.6,1.2-19.2,1.2-19.2l3.6,2.4s-1.2,7.2,0,9.6,6,10.8,6,10.8h3.6l7.2,18Z" fill="#7359ae"/><path d="M394.618,189.6l-34.072-36.979-6.987-3.494-15.14-16.305L329.1,122.214l-22.127-9.192-5.823-4.658-16.3,8.152-8.333.842-7.1,3.642H267.57l-8.48,6.058s-7.27,2.423-8.481,2.423-10.9,7.269-10.9,7.269l-4.846,1.211s-3.635,4.847-8.481,4.847-27.865,9.692-27.865,9.692L204.57,184,305,185h.026Z" fill="#7359ae"/><polygon points="230.408 96.348 234.257 101.209 237.903 98.778 240.334 91.486 230.408 96.348" fill="#a38cdd"/><polygon points="250.354 87.84 244.277 99.994 250.354 101.209 254 90.271 254 84.857 250.354 87.84" fill="#a38cdd"/><path d="M283.354,74.708,279.708,82h3.646L287,78.354V82h8.507l7.292,3.646,6.077,9.723s0-2.431,1.215-2.431-2.43-13.369-2.43-13.369L302.8,68.631Z" fill="#a38cdd"/><path d="M262,101.6c1.208,0,8.458-9.6,8.458-9.6H272l1.25,7.292,2.5,3.646,2.5,4.861s5,3.646,8.75,4.862,7.5-1.216,7.5-1.216l6.25-3.646s0,4.862,1.25,4.862,3.75-2.431,3.75-2.431l6.25,2.431,1.25,2.43,3.75,1.216s2.5,3.645,5,3.645a45.325,45.325,0,0,1,7.5,1.216s-2.5,6.076-1.25,8.507,5,12.153,5,12.153l-12.5-1.215L312,139.4V119.952l-2.5,2.431-3.75,15.8s-3.75-6.076-3.75-8.507V124.3l-1-3.646V116h-3.958L291,122v-4.8l-8.458,7.2s0-6-3.625-6-7.25-3.6-7.25-3.6-4.834,0-7.25-1.2A4.258,4.258,0,0,1,262,110Z" fill="#a38cdd"/><path d="M347.342,96l-7.412,16.059,1.236,1.235,2.47,3.706H354v-4c0-2.667-1.25-6.667,0-6.667A4.292,4.292,0,0,0,356.5,105l7.5,8s1.25,4,0,5.333A4.266,4.266,0,0,0,362.75,121h3.75l2.5-5.333v6.047s5.143,2.572,6.429,0,.989-11.769.989-11.769l-4.9-3.264L369,111.429V105h-3.857l-10.286-9Z" fill="#a38cdd"/><polygon points="394.277 117.008 396.708 120.654 401.569 124.3 400.354 118.223 404 115.793 404 110.931 394.277 117.008" fill="#a38cdd"/><path d="M421.909,116.631s-2.431,7.292-3.646,8.508l-2.431,2.43S417.048,130,418.263,130h6.076l3.646,1.215,8.508,1.216L445,128.582v-7.089l-12.153-6.077Z" fill="#a38cdd"/><path d="M338.458,132s-3.857,9-2.571,9h6.428l3.857,9h7.715l-2.572-9-9-7.714Z" fill="#a38cdd"/><path d="M361,153v7.292l4.861,4.861a27.552,27.552,0,0,1,1.216,4.862c0,1.215,2.43,3.646,1.215,4.861a17.5,17.5,0,0,1-3.646,2.431s15.8,9.722,18.23,9.722,18.23,2.431,18.23,2.431l-12.154-13.369-4.861-3.646-3.646-8.507-3.646,2.431-4.861-3.646-1.215-4.862L364.646,153Z" fill="#a38cdd"/><polygon points="342.876 98.778 340.445 86.625 332.366 88.07 325.861 86.625 319.785 87.84 318.569 95.132 321 97.563 321 103.639 324.646 104.855 329.507 97.563 331.221 92.421 342.876 98.778" fill="#a38cdd"/></g><rect x="206" y="51" width="239" height="5" fill="#fff"/><rect x="252" y="170" width="144" height="11" fill="#505050"/><path d="M225,245V122.058A5.059,5.059,0,0,0,219.942,117H41.058A5.059,5.059,0,0,0,36,122.058V245Z" fill="#4b4a4b"/><path d="M239.715,251H21.937c-7.259,0-8.445-10-8.445-10H248.159S245.344,251,239.715,251Z" fill="#737373"/><rect x="129" y="121" width="3" height="3" fill="#5d5f5e"/><path d="M45,224.44A2.63,2.63,0,0,0,47.541,227h164.5A3.96,3.96,0,0,0,216,223.039v-94.99a.049.049,0,0,0-.049-.049H45.2a.2.2,0,0,0-.2.2V224" fill="#69afe5" fill-rule="evenodd"/><path d="M151.042,203Zm-1.086.074" fill="#0078d7" fill-rule="evenodd"/><rect x="45" y="142" width="74" height="85"/><ellipse cx="54.081" cy="155.977" rx="4.156" ry="3.977" fill="#107c10"/><rect x="75" y="165" width="17" height="15" fill="#0078d7"/><rect x="75" y="180" width="8" height="7" fill="#0078d7"/><rect x="83" y="180" width="8" height="7" fill="#107c10"/><rect x="92" y="165" width="8" height="7" fill="#0078d7"/><rect x="101" y="165" width="7" height="7" fill="#0078d7"/><rect x="75" y="203" width="17" height="15" fill="#107c10"/><rect x="92" y="203" width="8" height="7" fill="#0078d7"/><rect x="101" y="203" width="7" height="7" fill="#0078d7"/><rect x="92" y="211" width="8" height="7" fill="#fff"/><rect x="101" y="211" width="7" height="7" fill="#2f2f2f"/><rect x="75" y="191" width="7" height="7" fill="#00188f"/><rect x="83" y="191" width="8" height="7" fill="#d83b01"/><rect x="92" y="191" width="7" height="7" fill="#5c2d91"/><rect x="100" y="191" width="8" height="7" fill="#107c10"/><rect x="75" y="150" width="33" height="13" fill="#0078d7"/><rect x="91" y="173" width="17" height="14" fill="#0078d7"/><path d="M216,218H45v7.585A2.373,2.373,0,0,0,47.392,228H213.608A2.373,2.373,0,0,0,216,225.585V218" fill-rule="evenodd"/><rect x="50" y="163" width="7" height="5" fill="#0078d7"/><rect x="50" y="170" width="7" height="5" fill="#0078d7"/><rect x="50" y="177" width="7" height="5" fill="#a80000"/><rect x="50" y="184" width="7" height="5" fill="#0078d7"/><rect x="50" y="191" width="7" height="5" fill="#0078d7"/><path d="M216,128H157.1L216,217.5h0c.042,0,.042-89.5,0-89.5" fill="#8fc3ec" fill-rule="evenodd"/><path d="M191.434,156.282a4.059,4.059,0,0,0,.149-1.33,9.923,9.923,0,0,0-9.945-9.9,10.089,10.089,0,0,0-9.2,6.206,7.74,7.74,0,0,0-3.711-1.035,7.333,7.333,0,0,0-7.421,7.389A7.426,7.426,0,0,0,168.725,165H190.1a4.586,4.586,0,0,0,4.452-4.581A4.439,4.439,0,0,0,191.434,156.282Z" fill="#fff" fill-rule="evenodd"/><polygon points="179 180.984 179 218 156 218 156 202 157 202 157 195 166 195 166 202 167 202 167 209.999 172 209.999 172 182.103 179 180.984" fill="#0089de" fill-rule="evenodd"/><polygon points="216 208 216 218 182 218 182 192 192 192 192 203 194 203 194 188 196 188 196 185 203 185 203 188 205 188 205 208 216 208" fill="#0089de" fill-rule="evenodd"/><path d="M145.805,202.176c-.208-2.3-.322-4.707-.322-7.176,0-8.5,1.321-16.262,3.365-21.534a28.105,28.105,0,0,0,8.248-2.118A30.841,30.841,0,0,0,145.445,169l-.8-7h-.431l-.629,7a30.876,30.876,0,0,0-11.7,2.351,28.1,28.1,0,0,0,8.25,2.118C142.179,178.738,143.5,186.5,143.5,195c0,2.469-.114,4.873-.322,7.176a15.254,15.254,0,0,0-5.173,1.172,15.013,15.013,0,0,0,4.925,1.156,47.708,47.708,0,0,1-3.405,13.5h1.116a46.361,46.361,0,0,0,3.128-12.018v12.029h1.444V205.973A46.332,46.332,0,0,0,148.342,218h1.116a47.708,47.708,0,0,1-3.405-13.5,15.007,15.007,0,0,0,4.924-1.156A15.253,15.253,0,0,0,145.805,202.176Zm-.592-18.16V173.7c.844-.016,1.675-.055,2.485-.122A50.158,50.158,0,0,0,145.213,184.016Zm-3.929-10.434c.811.067,1.641.106,2.485.122v10.3A50.154,50.154,0,0,0,141.284,173.582Z" fill="#0089de" fill-rule="evenodd"/><path d="M591,245V139.369A4.369,4.369,0,0,0,586.631,135H432.369A4.369,4.369,0,0,0,428,139.369V245Z" fill="#4b4a4b"/><rect x="437" y="144" width="14" height="90" fill="#750000"/><rect x="451" y="144" width="132" height="90" fill="#e27c37"/><polygon points="583 234 574.681 234 521.477 144 583 144 583 234" fill="#ea8b4b"/><path d="M604.2,251H415.324c-6.3,0-7.324-7-7.324-7H611.524S609.083,251,604.2,251Z" fill="#737373"/><rect x="508" y="139" width="3" height="2" fill="#5d5f5e"/><rect x="437" y="144" width="146" height="6" fill="#737373"/><rect x="440" y="154" width="7" height="7" fill="#d83b01"/><rect x="440" y="164" width="7" height="7" fill="#0872c4"/><rect x="440" y="173" width="7" height="7" fill="#107c10"/><rect x="440" y="183" width="7" height="7" fill="#bd3604"/><rect x="440" y="192" width="7" height="7" fill="#d83b01"/><rect x="440" y="202" width="7" height="7" fill="#0872c4"/><rect x="275" y="171" width="8" height="8" fill="#0078d7"/><rect x="295" y="171" width="8" height="8" fill="#5c2d91"/><rect x="305" y="171" width="8" height="8" fill="#737373"/><circle cx="269" cy="175" r="4.243" fill="#32145a"/><circle cx="289" cy="175" r="4.243" fill="#1ac3f3"/><circle cx="319" cy="175" r="4.243" fill="#107c10"/><rect x="325" y="171" width="8" height="8" fill="#0078d7"/><rect x="345" y="171" width="8" height="8" fill="#af5443"/><rect x="355" y="171" width="8" height="8" fill="#737373"/><rect x="255" y="171" width="8" height="8" fill="#737373"/><rect x="375" y="171" width="8" height="8" fill="#0078d7"/><circle cx="339" cy="175" r="4.243" fill="#a6a6a6"/><circle cx="369" cy="175" r="4.243" fill="#32145a"/><circle cx="389" cy="175" r="4.243" fill="#1ac3f3"/></svg>