<svg xmlns="http://www.w3.org/2000/svg" viewBox="0 0 636 300"><title>swimlane-cross-browser</title><rect x="344.5" y="113.5" width="219" height="155" rx="4.146" fill="#ffcb40"/><path d="M559.362,113.5H497.726l51.407,155h10.229a4.138,4.138,0,0,0,4.138-4.138V117.638A4.138,4.138,0,0,0,559.362,113.5Z" fill="#ffd867"/><path d="M563.5,129.5V117.638a4.138,4.138,0,0,0-4.138-4.138H348.638a4.138,4.138,0,0,0-4.138,4.138V129.5Z" fill="#939393"/><rect x="351.5" y="118.5" width="6" height="6" fill="#fff"/><rect x="388.5" y="118.5" width="6" height="6" fill="#d2d2d2"/><rect x="377.5" y="118.5" width="6" height="6" fill="#d2d2d2"/><rect x="551.5" y="118.5" width="6" height="6" fill="#d2d2d2"/><rect x="399.5" y="118.5" width="146" height="6" fill="#fff"/><path d="M458.417,156.826a45.269,45.269,0,0,0-34.98,16.523,35.488,35.488,0,0,1-1.77-4.682c-.75-3.125-2.292-1.75-2.625.25-.252,1.509-.812,9.135-1.215,13.076a45.331,45.331,0,1,0,40.59-25.167Zm0,3a42.085,42.085,0,0,1,21.881,6.105c-2.913-.338-6.9-.65-9.128-.813a.379.379,0,0,0-.21.709l7.351,4.166a.717.717,0,0,1-.041,1.269l-2.36,1.142a.8.8,0,0,0,.009,1.449c3.591,1.652,12.251,6.212,15.117,12.886a.564.564,0,0,1-.522.774c-.885.01-1.776,0-2.389,0a.663.663,0,0,0-.663.764,45.216,45.216,0,0,1,.054,13.826.574.574,0,0,1-.9.353c-.516-.368-1.06-.717-1.488-.98a.581.581,0,0,0-.883.426c-.518,4.171-3.9,21.437-24.412,21.767-10.832.174-14.333-5.5-14.333-5.5a32.118,32.118,0,0,0,9.333-.667c3.084-.833,8.4-5.066,10.917-6.726a1.242,1.242,0,0,0,.388-1.669c-.973-1.659-3.333-4.521-7.471-2.938-3.1,1.186-6.5,3.625-12.25,2.5-4.613-.9-6.884-5.34-7.168-8.084a1.967,1.967,0,0,1,1.9-2.169l3.852-.167a1.694,1.694,0,0,0,1.607-1.9l-.195-1.562a3.806,3.806,0,0,1,1.2-3.276l9.122-8.373a.814.814,0,0,0-.572-1.414c-2.691.073-5.874.323-8.83.448-2.52.106-2.125-.459-3.291-2.125s-.417-3.459,1.75-6.125.647-3.4-1.125-2.584c-2.625,1.209-7.044,5.28-9.125,4.834a68.912,68.912,0,0,0-9.872-.807A42.273,42.273,0,0,1,458.417,159.826Z" fill="#eaa844"/><rect x="249.5" y="2.5" width="203" height="151" rx="6.95" fill="#c3e3f4"/><path d="M366.757,86.5h24.43a42.883,42.883,0,0,0,.239-4.5A42.436,42.436,0,0,0,364,42.31c9.091-3.812,16.6-4.222,20.506-.315,3.064,3.063,3.478,8.338,1.676,14.856a.26.26,0,0,0,.5.154c3.448-9.073,3.583-16.5-.4-20.489-5.237-5.237-16.412-3.365-29.45,3.79A42.4,42.4,0,0,0,306.574,82c0,.172.011.341.013.512A94.468,94.468,0,0,1,328.1,62.483c-23.149,23.178-34.711,49.149-25.826,58.035,3.988,3.987,11.417,3.852,20.489.4a.26.26,0,0,0-.154-.5c-6.517,1.8-11.793,1.387-14.856-1.676-4.207-4.207-3.409-12.589,1.254-22.626A42.418,42.418,0,0,0,388.492,97.5H363.21c-3.292,5.772-8.425,9.5-14.21,9.5-8.94,0-16.354-8.872-17.757-20.5h35.514ZM349,58c7.606,0,14.105,6.424,16.741,15.5H332.259C334.9,64.424,341.394,58,349,58Z" fill="#81d0f9"/><rect x="103.5" y="68.5" width="219" height="155" rx="4.146" fill="#e6e6e6"/><circle cx="213" cy="153" r="16.5" fill="#6bafe9"/><path d="M191.225,149.372A22,22,0,0,1,213,130.5c.694,0,41.209.092,41.209.092a46.659,46.659,0,0,0-78.145-6.6Z" fill="#e96f5f"/><path d="M227.285,136.392A22.237,22.237,0,0,1,235,153.117a21.721,21.721,0,0,1-2.991,11.253L208.3,199.55q2.321.233,4.7.236A46.672,46.672,0,0,0,256.612,136.5Z" fill="#f2d850"/><path d="M219.1,173.8a21.982,21.982,0,0,1-6.1.865c-8.174,0-14.917-4.25-19.095-11.079L172.8,128.976a46.659,46.659,0,0,0,29.761,69.172Z" fill="#8de265"/><path d="M318.362,68.5H256.726l51.407,155h10.229a4.138,4.138,0,0,0,4.138-4.138V72.638A4.138,4.138,0,0,0,318.362,68.5Z" fill="#f3f3f3"/><path d="M322.5,84.5V72.638a4.138,4.138,0,0,0-4.138-4.138H107.638a4.138,4.138,0,0,0-4.138,4.138V84.5Z" fill="#8867c8"/><rect x="110.5" y="73.5" width="6" height="6" fill="#fff"/><rect x="147.5" y="73.5" width="6" height="6" fill="#81d0f9"/><rect x="136.5" y="73.5" width="6" height="6" fill="#81d0f9"/><rect x="310.5" y="73.5" width="6" height="6" fill="#d2d2d2"/><rect x="158.5" y="73.5" width="146" height="6" fill="#fff"/><path d="M445.549,2.5H394.882l50.08,151h.587a6.951,6.951,0,0,0,6.951-6.951V9.451A6.951,6.951,0,0,0,445.549,2.5Z" fill="#d0ebf7"/><path d="M452.5,21.5V9.451A6.951,6.951,0,0,0,445.549,2.5h-189.1A6.951,6.951,0,0,0,249.5,9.451V21.5Z" fill="#939393"/><rect x="294.5" y="8.5" width="147" height="7" fill="#fff"/><rect x="287.5" y="8.5" width="7" height="7" transform="translate(582 24) rotate(180)" fill="#81d0f9"/><rect x="276.5" y="8.5" width="7" height="7" transform="translate(560 24) rotate(180)" fill="#d2d2d2"/><circle cx="260" cy="12" r="3.5" fill="#d2d2d2"/><path d="M458.946,292.057c-5.3,1.194-14.312,2.319-30.4,2.319s-27.965-1.167-32.483-2.33-7.567-3.874-7.567-8.153V148.38c0-4.357,2.882-6.983,7.77-7.716a258.847,258.847,0,0,1,32.076-2,189.031,189.031,0,0,1,30.394,2c5.237.83,7.76,3.544,7.76,7.9V283.9C466.5,288.179,464.247,290.863,458.946,292.057Z" fill="#505050"/><rect x="392.5" y="155.5" width="70" height="122" fill="#55a6e4"/><circle cx="427.314" cy="146.322" r="1.524" fill="#939393"/><circle cx="403.212" cy="147.527" r="1.223" fill="#939393"/><polygon points="462.5 215.682 462.5 155.5 396.769 155.5 462.5 215.682" fill="#95bede"/><circle cx="427.5" cy="211.5" r="32" fill="#fff"/><polygon points="407.201 231.022 423.839 207.951 447.354 193.087 431.603 215.271 407.201 231.022" fill="#c2c2c2"/><polygon points="423.839 207.951 447.354 193.087 431.603 215.271 423.839 207.951" fill="#e96f5f"/><path d="M423.5,155.5v4.743a4.087,4.087,0,0,0,3.216,4.066,3.986,3.986,0,0,0,4.784-3.861V155.5Z" fill="#fff"/><rect x="395.5" y="268.5" width="1" height="7" fill="#95bede"/><rect x="402.5" y="268.5" width="1" height="7" fill="#95bede"/><rect x="409.5" y="268.5" width="1" height="7" fill="#95bede"/><rect x="416.5" y="268.5" width="1" height="7" fill="#95bede"/><rect x="423.5" y="268.5" width="1" height="7" fill="#95bede"/><rect x="430.5" y="268.5" width="1" height="7" fill="#95bede"/><rect x="437.5" y="268.5" width="1" height="7" fill="#95bede"/><rect x="444.5" y="268.5" width="1" height="7" fill="#95bede"/><rect x="451.5" y="268.5" width="1" height="7" fill="#95bede"/><rect x="458.5" y="268.5" width="1" height="7" fill="#95bede"/><rect x="399.5" y="271.5" width="1" height="4" fill="#95bede"/><rect x="406.5" y="271.5" width="1" height="4" fill="#95bede"/><rect x="413.5" y="271.5" width="1" height="4" fill="#95bede"/><rect x="420.5" y="271.5" width="1" height="4" fill="#95bede"/><rect x="427.5" y="271.5" width="1" height="4" fill="#95bede"/><rect x="434.5" y="271.5" width="1" height="4" fill="#95bede"/><rect x="441.5" y="271.5" width="1" height="4" fill="#95bede"/><rect x="448.5" y="271.5" width="1" height="4" fill="#95bede"/><rect x="455.5" y="271.5" width="1" height="4" fill="#95bede"/><path d="M426.046,240.035q-.533-.02-1.061-.06l.305-3.982c.3.023.6.041.909.053Zm3.532-.078-.338-3.979c.306-.026.609-.056.911-.093l.479,3.964Q430.107,239.912,429.578,239.957Zm-8.093-.465q-.522-.1-1.037-.23l.938-3.881q.441.107.89.2Zm12.625-.285-.972-3.873c.3-.074.591-.154.883-.238l1.112,3.835Q434.625,239.078,434.11,239.207Zm-17.044-.988q-.5-.189-.988-.395l1.552-3.679q.422.177.85.34Zm21.4-.483-1.582-3.666q.418-.181.831-.377l1.714,3.606Q438.948,237.525,438.462,237.736Zm-25.551-1.486c-.307-.178-.612-.361-.912-.55l2.127-3.38q.385.243.781.471Zm29.6-.665-2.148-3.365q.386-.246.759-.5L443.4,235Q442.963,235.3,442.515,235.585Zm-33.386-1.944q-.411-.336-.81-.687l2.636-3q.344.3.7.59Zm37.047-.829-2.662-2.977q.342-.306.672-.623l2.766,2.881Q446.57,232.459,446.176,232.812Zm-40.362-2.349q-.353-.4-.69-.806l3.081-2.541q.291.352.593.694Zm43.531-.971-3.1-2.517q.288-.354.563-.72l3.191,2.4C449.787,228.938,449.568,229.217,449.345,229.492Zm-46.3-2.693q-.283-.447-.552-.905l3.447-2.016q.231.394.474.778Zm48.9-1.094-3.461-1.991q.227-.394.439-.8l3.536,1.857C452.293,225.086,452.122,225.4,451.945,225.705Zm-51.039-2.966c-.139-.324-.271-.651-.4-.98l3.726-1.437q.165.426.343.843Zm53-1.192-3.737-1.409c.108-.285.209-.571.306-.86l3.787,1.264Q454.094,221.049,453.906,221.547Zm-54.46-3.162q-.128-.514-.236-1.036l3.909-.813q.093.447.2.888Zm55.724-1.264-3.916-.782q.09-.447.163-.9l3.942.637Q455.274,216.6,455.17,217.121Zm-56.465-3.27c-.029-.352-.051-.7-.067-1.059l3.989-.177q.021.457.058.911Zm56.776-1.186-4-.146c.011-.3.017-.608.017-.914v-.1h4v.086C455.5,211.96,455.494,212.313,455.481,212.665Zm-52.8-3.093-3.981-.311c.027-.353.062-.7.1-1.055l3.968.456C402.73,208.963,402.7,209.267,402.677,209.572Zm48.856-1.206q-.057-.453-.132-.9l3.939-.652q.087.522.154,1.05Zm-48.235-2.7-3.88-.945q.126-.518.271-1.027l3.841,1.09C403.448,205.08,403.37,205.374,403.3,205.67ZM450.72,204.5c-.087-.292-.179-.583-.276-.87l3.783-1.277q.169.5.321,1.011Zm-46.18-2.582-3.676-1.56q.209-.491.434-.971l3.615,1.695Q404.72,201.5,404.54,201.92Zm44.753-1.1q-.2-.41-.411-.81l3.527-1.873q.249.468.48.946Zm-42.92-2.4L403,196.286q.284-.449.583-.887l3.3,2.253Q406.617,198.029,406.373,198.416Zm40.922-1q-.262-.374-.537-.736l3.182-2.413q.32.423.624.857Zm-38.552-2.163-2.993-2.642q.351-.4.718-.784l2.892,2.754Q409.045,194.91,408.743,195.252Zm36.033-.878q-.32-.328-.651-.645l2.758-2.888q.382.366.752.745Zm-33.188-1.867-2.534-3.087c.273-.223.55-.443.831-.657l2.419,3.177Q411.941,192.218,411.588,192.507Zm30.211-.74q-.366-.271-.742-.53l2.26-3.292q.438.3.865.618Zm-26.967-1.515-2.008-3.451q.458-.265.925-.516l1.879,3.524Q415.225,190.024,414.832,190.252Zm23.616-.579q-.406-.21-.82-.405l1.7-3.612c.321.151.639.309.954.471Zm-20.055-1.125-1.427-3.73c.331-.126.663-.246,1-.36l1.286,3.78C418.963,188.336,418.676,188.44,418.393,188.548Zm16.409-.4q-.432-.141-.872-.267l1.1-3.839q.512.146,1.015.311Zm-12.618-.7-.807-3.911q.52-.107,1.046-.195l.656,3.939Q422.629,187.349,422.184,187.441Zm8.778-.214c-.3-.046-.6-.087-.9-.123l.464-3.966q.53.061,1.051.143Zm-5.353-.269-.171-3.989c.353-.015.706-.024,1.062-.026l.019,3.993C426.215,186.938,425.911,186.946,425.609,186.958Z" fill="#95bede"/></svg>